<svg width="100" height="100" viewBox="0 0 100 100" fill="none" xmlns="http://www.w3.org/2000/svg">
<rect width="100" height="100" rx="15" fill="#c7f9cc"/>
<path d="M26.3778 40.3521C26.1736 37.4592 28.4653 35 31.3654 35H68.6346C71.5347 35 73.8264 37.4592 73.6222 40.3521L70.7987 80.3521C70.6139 82.9704 68.4359 85 65.8111 85H34.1889C31.5641 85 29.3861 82.9704 29.2013 80.3521L26.3778 40.3521Z" fill="red"/>
<rect x="33" y="45.4358" width="5" height="30" rx="2.5" transform="rotate(-5 33 45.4358)" fill="#c7f9cc"/>
<rect x="62.6147" y="45" width="5" height="30" rx="2.5" transform="rotate(5 62.6147 45)" fill="#c7f9cc"/>
<rect x="48" y="45" width="5" height="30" rx="2.5" fill="#c7f9cc"/>
<path d="M26.4358 33.1644C26.1951 30.4135 28.2301 27.9884 30.981 27.7477L68.8364 24.4358C71.5873 24.1951 74.0125 26.2301 74.2531 28.981V28.981L26.4358 33.1644V33.1644Z" fill="red"/>
<path d="M40.4358 27.2883C40.1951 24.5374 42.2301 22.1122 44.981 21.8715L49.9619 21.4358C52.7129 21.1951 55.138 23.23 55.3787 25.9809V25.9809L40.4358 27.2883V27.2883Z" fill="red"/>
<path d="M42.2615 26.9473C42.1171 25.2968 43.338 23.8417 44.9886 23.6973L49.9696 23.2615C51.6201 23.1171 53.0752 24.3381 53.2196 25.9886V25.9886L42.2615 26.9473V26.9473Z" fill="#c7f9cc"/>
</svg>
